<?xml version="1.0" encoding="utf-8"?>
<svg width="100" height="100" version="1.1" viewBox="0 0 100 100" xmlns="http://www.w3.org/2000/svg">
  <path d="m50 1.217c-26.94 0-48.78 21.72-48.78 48.51s21.84 48.51 48.78 48.51c9.737-0.02434 19.24-2.945 27.3-8.386 4.17 3.708 9.786 6.98 17.93 8.487-3.828-6.744-6.011-11.97-7.029-18.61 6.818-8.533 10.55-19.1 10.59-30 0-26.79-21.84-48.51-48.78-48.51z" fill="#f6f8fa" stroke="#1f2d3d" stroke-width="2"/>
  <path d="m80.32 68.83c-0.05106-9.313-6.093-16.47-14.59-16.58-9.923 0.279-14.53 8.616-14.61 16.58 0.04065 9.346 6.105 16.5 14.61 16.61 9.884-0.3043 14.51-8.678 14.59-16.61zm-5.493 0c0.0791 6.27-3.029 11.97-9.089 12.05-7.108-0.2167-9.079-6.83-9.118-12.05-0.05883-6.235 3.102-11.94 9.118-12.02 6.984 0.2513 9.048 6.845 9.089 12.02z" fill="#1f2d3d"/>
  <path d="m50.39 21.7c-7.234 0.2938-9.01 8.649-10.07 13.44l-3.838 17.26-13.34-30.07h-8.454l19.15 41.02c-1.205 4.918-2.793 15.74-8.991 15.6-4.549-0.1055-6.352-4.312-6.58-7.899h-1.606c0.2107 5.736 2.553 14.64 8.892 14.41 4.874-0.1797 7.248-5.101 8.321-8.757 3.668-12.5 5.057-20.77 8.15-33.91 1.176-4.996 2.865-14.59 9.13-14.68 3.34-0.04173 5.382 2.33 5.676 7.027 0.3592 5.728 2.546 15.38 8.893 14.41 11.21-1.718 8.661-21.06 17-21.44 3.122-0.141 4.981 2.931 5.574 7.033h1.705c-0.1023-5.366-2.231-13.38-8.039-13.44-11.62-0.1202-7.232 21.45-16.95 21.33-4.494-0.05381-6.499-4.328-6.58-7.9-0.1258-5.56-1.832-13.69-8.047-13.44z" fill="#1f2d3d"/>
</svg>
